<svg width="54" height="64" viewBox="0 0 54 64" fill="none" xmlns="http://www.w3.org/2000/svg">
<path d="M1 16.7368L25.96 2L53 16.7368V46.2105L25.96 62L1 46.2105V16.7368Z" stroke="#1DDECB" stroke-width="2"/>
<path d="M29.5532 19.5391H34.3872V35.7812C34.3872 37.2744 34.0542 38.5957 33.3882 39.7451C32.7329 40.8838 31.8037 41.7646 30.6006 42.3877C29.3975 43.0107 28.0386 43.3223 26.5239 43.3223C24.0425 43.3223 22.1089 42.6938 20.7231 41.437C19.3374 40.1694 18.6445 38.3809 18.6445 36.0713H23.5107C23.5107 37.2207 23.7524 38.0693 24.2358 38.6172C24.7192 39.165 25.4819 39.439 26.5239 39.439C27.4478 39.439 28.1836 39.1221 28.7314 38.4883C29.2793 37.8545 29.5532 36.9521 29.5532 35.7812V19.5391Z" fill="#1DDECB"/>
</svg>
